<svg id="SvgjsSvg1029" width="288" height="288" xmlns="http://www.w3.org/2000/svg" version="1.1" xmlns:xlink="http://www.w3.org/1999/xlink" xmlns:svgjs="http://svgjs.com/svgjs"><defs id="SvgjsDefs1030"></defs><g id="SvgjsG1031" transform="matrix(1,0,0,1,0,0)"><svg xmlns="http://www.w3.org/2000/svg" enable-background="new 0 0 64 64" viewBox="0 0 64 64" width="288" height="288"><path d="M45.92 27.35H18.08c-4.07 0-7.39-3.51-7.39-7.83 0-3.99 2.83-7.29 6.47-7.78.43-3.89 3.56-6.92 7.34-6.92.62 0 1.22.08 1.81.24C27.9 1.96 30.97 0 34.34 0c3.51 0 6.64 2.07 8.19 5.35.36-.07.72-.1 1.09-.1 3.55 0 6.43 3.06 6.43 6.81 0 .32-.02.62-.06.92 2.06 1.44 3.31 3.88 3.31 6.53C53.31 23.84 49.99 27.35 45.92 27.35zM24.5 6.76c-3.01 0-5.45 2.64-5.45 5.89 0 .54-.43.97-.97.97-3 0-5.45 2.65-5.45 5.9 0 3.25 2.44 5.89 5.45 5.89h27.84c3.01 0 5.45-2.64 5.45-5.89 0-2.2-1.12-4.2-2.92-5.22-.38-.21-.57-.66-.46-1.08.09-.36.13-.75.13-1.16 0-2.69-2.02-4.87-4.49-4.87-.47 0-.92.08-1.34.22-.5.18-1.05-.08-1.23-.58-1.1-2.98-3.73-4.9-6.71-4.9-2.87 0-5.47 1.84-6.63 4.69-.1.24-.29.43-.53.53-.24.1-.51.1-.75 0C25.83 6.89 25.17 6.76 24.5 6.76zM32 42.58c-.54 0-.97-.43-.97-.97V30.81c0-.54.43-.97.97-.97.54 0 .97.43.97.97v10.81C32.97 42.15 32.53 42.58 32 42.58z" fill="#ff8066" class="color000 svgShape"></path><path d="M32 42.58L32 42.58c-.27 0-.53-.11-.71-.31l-2.48-2.66c-.36-.39-.34-1.01.05-1.37.39-.36 1.01-.34 1.37.05l1.77 1.9 1.77-1.9c.37-.39.98-.41 1.37-.05.39.36.41.98.05 1.37l-2.48 2.66C32.53 42.47 32.27 42.58 32 42.58zM51.4 37.18c-.25 0-.5-.09-.69-.28l-5.54-5.54c-.38-.38-.38-.99 0-1.37s.99-.38 1.37 0l5.54 5.54c.38.38.38.99 0 1.37C51.9 37.08 51.65 37.18 51.4 37.18z" fill="#ff8066" class="color000 svgShape"></path><path d="M51.4 37.18c-.01 0-.02 0-.04 0l-3.63-.13c-.53-.02-.95-.47-.93-1 .02-.53.46-.96 1-.93l2.59.1-.09-2.59c-.02-.54.4-.98.93-1 .56-.01.98.4 1 .93l.13 3.63c.01.27-.09.53-.28.72C51.91 37.08 51.66 37.18 51.4 37.18zM12.6 37.18c-.25 0-.5-.09-.69-.28-.38-.38-.38-.99 0-1.37l5.54-5.54c.38-.38.99-.38 1.37 0 .38.38.38.99 0 1.37l-5.54 5.54C13.09 37.08 12.85 37.18 12.6 37.18z" fill="#ff8066" class="color000 svgShape"></path><path d="M12.6 37.18c-.26 0-.5-.1-.69-.28-.19-.19-.29-.45-.28-.72l.13-3.63c.02-.54.45-.94 1-.93.54.02.95.47.93 1L13.6 35.2l2.59-.1c.56-.03.98.4 1 .93.02.53-.4.98-.93 1l-3.63.13C12.62 37.18 12.61 37.18 12.6 37.18zM59.04 53.23H45.9c-1.08 0-1.97-.88-1.97-1.97v-9.59c0-1.08.88-1.97 1.97-1.97h13.14c1.08 0 1.97.88 1.97 1.97v9.59C61.01 52.35 60.13 53.23 59.04 53.23zM45.9 41.65l-.03 9.62 13.17.03c.01 0 .03-.01.03-.03v-9.59L45.9 41.65z" fill="#ff8066" class="color000 svgShape"></path><path d="M52.47,56.55c-0.54,0-0.97-0.43-0.97-0.97v-3.32c0-0.54,0.43-0.97,0.97-0.97s0.97,0.43,0.97,0.97v3.32
					C53.44,56.11,53.01,56.55,52.47,56.55z" fill="#ff8066" class="color000 svgShape"></path><path d="M56.07 56.55h-7.19c-.54 0-.97-.43-.97-.97 0-.54.43-.97.97-.97h7.19c.54 0 .97.43.97.97C57.04 56.11 56.61 56.55 56.07 56.55zM18.1 53.23H4.96c-1.08 0-1.97-.88-1.97-1.97v-9.59c0-1.08.88-1.97 1.97-1.97H18.1c1.08 0 1.97.88 1.97 1.97v9.59C20.06 52.35 19.18 53.23 18.1 53.23zM4.96 41.65l-.03 9.62 13.17.03c.01 0 .03-.01.03-.03v-9.59L4.96 41.65z" fill="#ff8066" class="color000 svgShape"></path><path d="M11.53,56.55c-0.54,0-0.97-0.43-0.97-0.97v-3.32c0-0.54,0.43-0.97,0.97-0.97c0.54,0,0.97,0.43,0.97,0.97v3.32
					C12.5,56.11,12.06,56.55,11.53,56.55z" fill="#ff8066" class="color000 svgShape"></path><path d="M15.12,56.55H7.93c-0.54,0-0.97-0.43-0.97-0.97c0-0.54,0.43-0.97,0.97-0.97h7.19c0.54,0,0.97,0.43,0.97,0.97
					C16.09,56.11,15.66,56.55,15.12,56.55z" fill="#ff8066" class="color000 svgShape"></path><g fill="#ff8066" class="color000 svgShape"><path d="M38.57,60.68H25.43c-1.08,0-1.97-0.88-1.97-1.97v-9.59c0-1.08,0.88-1.97,1.97-1.97h13.14c1.08,0,1.97,0.88,1.97,1.97
				v9.59C40.54,59.8,39.66,60.68,38.57,60.68z M25.43,49.1l-0.03,9.62l13.17,0.03c0.01,0,0.03-0.01,0.03-0.03v-9.59L25.43,49.1z" fill="#ff8066" class="color000 svgShape"></path><path d="M32,64c-0.54,0-0.97-0.43-0.97-0.97v-3.32c0-0.54,0.43-0.97,0.97-0.97c0.54,0,0.97,0.43,0.97,0.97v3.32
				C32.97,63.57,32.54,64,32,64z" fill="#ff8066" class="color000 svgShape"></path><path d="M35.6,64H28.4c-0.54,0-0.97-0.43-0.97-0.97s0.43-0.97,0.97-0.97h7.19c0.54,0,0.97,0.43,0.97,0.97S36.13,64,35.6,64z" fill="#ff8066" class="color000 svgShape"></path></g></svg></g></svg>